<svg width="95" height="120" viewBox="0 0 95 120" fill="none" xmlns="http://www.w3.org/2000/svg">
<g clip-path="url(#clip0_113_99)">
<path d="M8.57 119.93C3.84 119.93 0 116.09 0 111.36V15.03C0 10.33 3.83 6.48996 8.53 6.45996H26.79C29 6.45996 30.79 8.24996 30.79 10.46C30.79 12.67 29 14.46 26.79 14.46H8.55C8.25 14.46 8 14.72 8 15.03V111.37C8 111.68 8.26 111.94 8.57 111.94H85.7C85.99 111.94 86.25 111.68 86.25 111.37V15.03C86.25 14.72 85.99 14.46 85.68 14.46H69.85C67.64 14.46 65.85 12.67 65.85 10.46C65.85 8.24996 67.64 6.45996 69.85 6.45996H85.68C90.41 6.45996 94.25 10.3 94.25 15.03V111.37C94.25 116.07 90.42 119.92 85.72 119.94H8.57V119.93Z" fill="white"/>
<path d="M31.9005 39.8799H23.4805V48.2999H31.9005V39.8799Z" fill="url(#paint0_linear_113_99)"/>
<path d="M31.9005 56.8799H23.4805V65.3099H31.9005V56.8799Z" fill="url(#paint1_linear_113_99)"/>
<path d="M31.9005 73.8701H23.4805V82.3001H31.9005V73.8701Z" fill="url(#paint2_linear_113_99)"/>
<path d="M70.2294 40.0898H39.8594V48.0898H70.2294V40.0898Z" fill="white"/>
<path d="M70.2294 57.0898H39.8594V65.0898H70.2294V57.0898Z" fill="white"/>
<path d="M70.2294 74.0801H39.8594V82.0801H70.2294V74.0801Z" fill="white"/>
<path d="M67.6191 22.51H29.0191C25.5791 22.51 22.7891 19.72 22.7891 16.28V6.23C22.7891 2.79 25.5891 0 29.0191 0H67.6191C71.0591 0 73.8491 2.79 73.8491 6.23V16.28C73.8491 19.71 71.0591 22.51 67.6191 22.51ZM30.7891 14.51H65.8491V8H30.7891V14.51Z" fill="white"/>
</g>
<defs>
<linearGradient id="paint0_linear_113_99" x1="23.4781" y1="44.0936" x2="31.9029" y2="44.0936" gradientUnits="userSpaceOnUse">
<stop stop-color="#F25838"/>
<stop offset="0.2126" stop-color="#ED4B30"/>
<stop offset="0.6063" stop-color="#DE291A"/>
<stop offset="1" stop-color="#CD0000"/>
</linearGradient>
<linearGradient id="paint1_linear_113_99" x1="23.4781" y1="61.0882" x2="31.9029" y2="61.0882" gradientUnits="userSpaceOnUse">
<stop stop-color="#F25838"/>
<stop offset="0.2126" stop-color="#ED4B30"/>
<stop offset="0.6063" stop-color="#DE291A"/>
<stop offset="1" stop-color="#CD0000"/>
</linearGradient>
<linearGradient id="paint2_linear_113_99" x1="23.4781" y1="78.0831" x2="31.9029" y2="78.0831" gradientUnits="userSpaceOnUse">
<stop stop-color="#F25838"/>
<stop offset="0.2126" stop-color="#ED4B30"/>
<stop offset="0.6063" stop-color="#DE291A"/>
<stop offset="1" stop-color="#CD0000"/>
</linearGradient>
<clipPath id="clip0_113_99">
<rect width="94.25" height="119.93" fill="white"/>
</clipPath>
</defs>
</svg>
