<svg width="117" height="112" viewBox="0 0 117 112" fill="none" xmlns="http://www.w3.org/2000/svg">
<g clip-path="url(#clip0_113_117)">
<path d="M108.739 111.63H90.4391C88.2291 111.63 86.4391 109.84 86.4391 107.63V79.0701C86.4391 70.0101 82.0591 61.4001 74.7391 56.0401C73.5991 55.2101 72.9791 53.8301 73.1191 52.4301C74.0291 42.9901 81.8691 35.8701 91.3591 35.8701C101.469 35.8701 109.689 44.0901 109.689 54.2001C109.689 59.1401 107.729 63.7101 104.439 67.0501C111.649 71.5201 116.369 79.5301 116.369 88.3501V104C116.359 108.7 113.439 111.63 108.739 111.63ZM94.4391 103.63H108.359V88.3401C108.359 80.3801 102.719 73.3901 94.9491 71.7201C94.4391 71.6101 93.9691 71.4001 93.5491 71.1201C94.1291 73.7101 94.4291 76.3701 94.4291 79.0601V103.63H94.4391ZM81.4791 51.1701C86.2891 55.2401 89.9291 60.4601 92.1091 66.2701C92.5491 65.2201 93.4291 64.3801 94.5591 64.0101C98.8191 62.6201 101.689 58.6801 101.689 54.2001C101.689 48.5001 97.0591 43.8701 91.3591 43.8701C86.7091 43.8701 82.7691 46.8901 81.4791 51.1701Z" fill="white"/>
<path d="M25.38 111.63H7.62C2.92 111.63 0 108.7 0 104V88.3403C0 79.5203 4.71 71.5104 11.93 67.0404C8.64 63.6904 6.68 59.1303 6.68 54.1903C6.68 44.0803 14.9 35.8604 25.01 35.8604C34.27 35.8604 42.09 42.7904 43.19 51.9804C43.37 53.4404 42.72 54.8804 41.52 55.7304C33.92 61.0704 29.38 69.8003 29.38 79.0603V107.62C29.38 109.83 27.59 111.63 25.38 111.63ZM8 103.63H21.38V79.0704C21.38 76.4904 21.65 73.9404 22.18 71.4704C21.93 71.5804 21.67 71.6604 21.4 71.7204C13.64 73.3904 8 80.3803 8 88.3403V103.63ZM25 43.8703C19.31 43.8703 14.67 48.5004 14.67 54.2004C14.67 58.6804 17.53 62.6204 21.8 64.0104C22.71 64.3104 23.45 64.9003 23.94 65.6703C26.21 59.9403 29.91 54.8104 34.76 50.8304C33.36 46.7404 29.48 43.8703 25 43.8703Z" fill="white"/>
<path d="M61.9693 51.9597L63.2793 47.7197C61.5593 48.1497 59.7593 48.3797 57.9093 48.3797C56.0593 48.3797 54.2593 48.1497 52.5393 47.7197L53.8493 51.9597H54.2693L50.0293 79.4597L57.8993 88.5097L65.7693 79.4597L61.5293 51.9597H61.9693Z" fill="url(#paint0_linear_113_117)"/>
<path d="M90.4409 111.63H25.3809C23.1709 111.63 21.3809 109.84 21.3809 107.63V79.07C21.3809 65.17 29.4009 52.64 41.3709 46.51C35.3809 41.64 31.7209 34.26 31.7209 26.19C31.7209 11.75 43.4709 0 57.9109 0C72.3509 0 84.1009 11.75 84.1009 26.18C84.1009 34.25 80.4409 41.64 74.4509 46.5C86.4309 52.62 94.4409 65.15 94.4409 79.06V107.62C94.4409 109.83 92.6509 111.63 90.4409 111.63ZM29.3809 103.63H86.4409V79.07C86.4409 65.72 76.9909 54 63.9609 51.19C62.1909 50.81 60.9009 49.29 60.8109 47.49C60.7209 45.69 61.8409 44.04 63.5609 43.48C71.0609 41.03 76.1009 34.08 76.1009 26.19C76.1009 16.16 67.9409 8 57.9109 8C47.8809 8 39.7209 16.16 39.7209 26.18C39.7209 34.07 44.7609 41.02 52.2609 43.47C53.9809 44.03 55.1109 45.67 55.0109 47.48C54.9209 49.28 53.6209 50.8 51.8609 51.18C38.8409 54 29.3809 65.72 29.3809 79.07V103.63Z" fill="white"/>
</g>
<defs>
<linearGradient id="paint0_linear_113_117" x1="50.0398" y1="68.1122" x2="65.7859" y2="68.1122" gradientUnits="userSpaceOnUse">
<stop stop-color="#F25838"/>
<stop offset="0.2126" stop-color="#ED4B30"/>
<stop offset="0.6063" stop-color="#DE291A"/>
<stop offset="1" stop-color="#CD0000"/>
</linearGradient>
<clipPath id="clip0_113_117">
<rect width="116.36" height="111.63" fill="white"/>
</clipPath>
</defs>
</svg>
