<svg width="90" height="125" viewBox="0 0 90 125" fill="none" xmlns="http://www.w3.org/2000/svg">
<g clip-path="url(#clip0_112_69)">
<path d="M80.67 124.6H8.77C3.93 124.6 0 120.67 0 115.83V8.77C0 3.96 3.92 0.02 8.73 0H80.65C85.49 0 89.42 3.94 89.42 8.77V115.83C89.42 120.64 85.5 124.58 80.69 124.6C80.68 124.6 80.67 124.6 80.67 124.6ZM8.75 8C8.35 8 8 8.35 8 8.77V115.83C8 116.26 8.35 116.6 8.77 116.6H80.65C81.07 116.6 81.41 116.25 81.41 115.83V8.77C81.41 8.34 81.06 8 80.64 8H8.75Z" fill="white"/>
<path d="M85.42 17.0996H4V25.0996H85.42V17.0996Z" fill="white"/>
<path d="M85.42 102.51H4C1.79 102.51 0 100.72 0 98.5098C0 96.2998 1.79 94.5098 4 94.5098H85.42C87.63 94.5098 89.42 96.2998 89.42 98.5098C89.42 100.71 87.63 102.51 85.42 102.51Z" fill="white"/>
<path d="M49.3307 109.32C49.3307 111.9 47.2407 113.99 44.6507 113.99C42.0707 113.99 39.9707 111.9 39.9707 109.32C39.9707 106.74 42.0607 104.65 44.6507 104.65C47.2407 104.64 49.3307 106.74 49.3307 109.32Z" fill="white"/>
<path d="M43.6499 68.7598C41.4399 68.7598 39.6499 66.9698 39.6499 64.7598V61.9998C39.6299 61.2098 39.8399 56.6998 45.7099 53.1298C46.2199 52.8198 48.7299 51.1698 48.4399 48.8998C48.0299 45.7998 45.5399 45.3398 44.0899 45.3398C41.9999 45.3398 40.3399 46.7598 39.9999 48.0798C39.4499 50.2198 37.2699 51.5098 35.1299 50.9598C32.9899 50.4098 31.6999 48.2298 32.2499 46.0898C33.5499 41.0198 38.5299 37.3398 44.0899 37.3398C49.5199 37.3398 55.4199 40.5898 56.3799 47.8598C57.1099 53.4298 53.4999 57.7598 49.8699 59.9698C48.1199 61.0298 47.7199 61.9798 47.6499 62.2098V64.7498C47.6499 66.9698 45.8599 68.7598 43.6499 68.7598Z" fill="url(#paint0_linear_112_69)"/>
<path d="M47.8202 76.8396C47.8202 79.1596 45.9402 81.0497 43.6102 81.0497C41.2802 81.0497 39.4102 79.1696 39.4102 76.8396C39.4102 74.5196 41.2902 72.6396 43.6102 72.6396C45.9302 72.6396 47.8202 74.5196 47.8202 76.8396Z" fill="url(#paint1_linear_112_69)"/>
</g>
<defs>
<linearGradient id="paint0_linear_112_69" x1="32.12" y1="53.0516" x2="56.4671" y2="53.0516" gradientUnits="userSpaceOnUse">
<stop stop-color="#F25838"/>
<stop offset="0.2126" stop-color="#ED4B30"/>
<stop offset="0.6063" stop-color="#DE291A"/>
<stop offset="1" stop-color="#CD0000"/>
</linearGradient>
<linearGradient id="paint1_linear_112_69" x1="39.4094" y1="76.8381" x2="47.8186" y2="76.8381" gradientUnits="userSpaceOnUse">
<stop stop-color="#F25838"/>
<stop offset="0.2126" stop-color="#ED4B30"/>
<stop offset="0.6063" stop-color="#DE291A"/>
<stop offset="1" stop-color="#CD0000"/>
</linearGradient>
<clipPath id="clip0_112_69">
<rect width="89.42" height="124.6" fill="white"/>
</clipPath>
</defs>
</svg>
